<?xml version="1.0" encoding="utf-8"?>
<!-- Generator: Adobe Illustrator 21.0.0, SVG Export Plug-In . SVG Version: 6.00 Build 0)  -->
<svg version="1.1" class="logo" xmlns="http://www.w3.org/2000/svg" xmlns:xlink="http://www.w3.org/1999/xlink" x="0px" y="0px"
	 viewBox="0 0 916 359.5" style="width: 220px; height: auto;" xml:space="preserve">
<g>
	<path d="M45,0.5c0,35,0,70,0,105c0,1,0,2,0,3.5c1-0.6,1.6-1,2.3-1.5c20.2-14.2,42.4-17.9,65.9-11.1c25.1,7.2,40.3,24,45.2,49.8
		c1.3,6.7,2,13.6,2,20.3c0.2,33.2,0.1,66.3,0.1,99.5c0,0.7,0,1.3,0,2.2c-14.8,0-29.5,0-44.5,0c0-1,0-1.9,0-2.9
		c0-29.8,0.1-59.7-0.1-89.5c0-5.8-1-11.8-2.4-17.5c-3-12.2-12.9-20.6-25.4-21.8c-5.6-0.5-11.4-0.6-16.9,0.3
		c-13.8,2.1-21.8,10.8-24.6,24.2c-1,4.7-1.5,9.6-1.5,14.4C45,205.4,45,235.5,45,265.6c0,0.8,0,1.7,0,2.9c-15,0-29.7,0-44.5,0
		c0-89.3,0-178.7,0-268C15.3,0.5,30.2,0.5,45,0.5z"/>
	<path d="M379.4,183.5c0.6,46.3-36.5,82.2-74.4,88.3c-40.2,6.4-75.4-9-96.8-44.5c-9.6-15.9-13-33.5-11.2-51.9
		c3.6-36.8,23.3-62.7,57.2-75.9c40.6-15.7,90-4.4,115.6,42.4C376.7,154.5,379.4,168.4,379.4,183.5z M287.7,135.9
		c-26.3,0-47.6,21.1-47.6,47.2c0,26.1,21.3,47.4,47.4,47.4c26.8,0,47.9-20.8,47.9-47.3C335.5,157,314.1,135.9,287.7,135.9z"/>
	<path d="M436,360c0.2-0.9,0.3-1.8,0.6-2.6c9.7-27,19.3-54,29.1-81c0.8-2.3,0.7-4.2-0.2-6.4c-23-56.7-45.9-113.4-68.8-170.1
		c-0.4-1-0.8-2-1.3-3.2c0.9-0.1,1.6-0.2,2.3-0.2c14.8,0,29.7,0,44.5,0c1.9,0,2.7,0.6,3.3,2.4c13.7,37.9,27.5,75.9,41.3,113.8
		c0.2,0.6,0.5,1.2,0.9,2.4c0.5-1.2,0.8-1.9,1.1-2.7c13.5-37.7,27-75.3,40.5-113c0.8-2.2,1.7-2.9,4-2.9c12.6,0.1,25.2,0.1,37.7,0.1
		c0.9,0,1.8,0,3,0c-0.4,1.1-0.6,2-0.9,2.8c-31.1,86.1-62.1,172.2-93.2,258.2c-0.3,0.9-0.7,1.7-1.1,2.5C464.7,360,450.3,360,436,360z
		"/>
	<path d="M724,213.8c10.2,8.1,20.2,16.1,30.4,24.2c-1.5,1.9-2.7,3.7-4.1,5.3c-12,14.2-27.5,22.8-45.4,27
		c-37.6,8.8-76.1-2.2-100.1-37.3c-8.8-12.8-13.2-27.3-14.1-42.6c-1.6-28.1,6.5-52.8,26.5-73.1c15-15.2,33.3-22.8,54.5-24
		c10.3-0.6,20.5,0.1,30.5,2.7c11.9,3,22.6,8.5,31.9,16.5c18.3,15.9,29.1,35.8,31.4,60c0.7,7.1,0.1,14.3,0,21.4c0,1-0.3,1.9-0.5,3.2
		c-43.6,0-87.2,0-131,0c1.5,6.5,4.1,12.2,7.9,17.1c8.6,11.3,20,17.5,34.1,18.2c6.3,0.3,12.7,0.1,18.9-0.9
		C706.7,229.7,716.4,223.7,724,213.8z M635.5,164.3c28.6,0,57,0,85.6,0c-0.9-6.3-3.5-11.6-7.6-16.1c-18.1-19.7-51.6-19.3-69.2,0.8
		C640.4,153.4,637.5,158.5,635.5,164.3z"/>
	<path d="M916.5,136c-15.4-0.1-30.6,0.8-45.2,6.5c-12.6,4.9-19.2,14.1-20.3,27.4c-0.3,3.8-0.6,7.6-0.6,11.5c0,28.2,0,56.3,0,84.5
		c0,0.7,0,1.5,0,2.4c-14.9,0-29.5,0-44.4,0c0-57.2,0-114.3,0-171.6c14.7,0,29.4,0,44.3,0c0,4,0,7.9,0,12.2c0.7-0.3,1.1-0.5,1.4-0.7
		c13-9.2,27.6-13.3,43.3-14.2c7.1-0.4,14.3-0.6,21.4-0.9C916.5,107.3,916.5,121.7,916.5,136z"/>
	<path d="M635.5,164.3c1.9-5.8,4.9-10.9,8.8-15.3c17.6-20.1,51.1-20.5,69.2-0.8c4.2,4.5,6.7,9.8,7.6,16.1
		C692.5,164.3,664.2,164.3,635.5,164.3z" fill="transparent"/>
	<path d="M287.7,135.9c26.4,0,47.8,21.2,47.8,47.3c0,26.4-21.1,47.3-47.9,47.3c-26.1,0-47.4-21.3-47.4-47.4
		C240.2,157,261.5,135.9,287.7,135.9z" fill="transparent"/>
</g>
</svg>
